<svg width="50" height="50" viewBox="0 0 50 50" fill="none" xmlns="http://www.w3.org/2000/svg">
<path d="M45.2083 13.6042C45.2291 13.6458 45.2291 13.7083 45.2291 13.7708V22.7083C45.2291 22.9167 45.1041 23.1667 44.9166 23.2708L37.3958 27.6042V36.1667C37.3958 36.3958 37.2916 36.6042 37.0833 36.7292L21.4166 45.75C21.375 45.7708 21.3333 45.8333 21.2916 45.8333H20.8333C20.8333 45.8333 20.8333 45.7708 20.75 45.75L5.08329 36.7292C4.98729 36.6701 4.9081 36.5874 4.85337 36.4888C4.79863 36.3903 4.77019 36.2794 4.77079 36.1667V9.375C4.77079 9.27083 4.77079 9.20833 4.79162 9.16667C4.79162 9.14583 4.81246 9.125 4.81246 9.10416C4.81246 9.0625 4.83329 9.04167 4.85412 9C4.85412 8.97917 4.87496 8.95833 4.89579 8.9375L4.95829 8.875L5.02079 8.8125C5.04163 8.79167 5.06246 8.77083 5.08329 8.77083L12.9166 4.25C13.125 4.16667 13.375 4.16667 13.5416 4.25L21.4166 8.77083C21.4375 8.79167 21.4583 8.79167 21.4791 8.8125L21.5416 8.875L21.6041 8.9375C21.625 8.95833 21.6458 8.97917 21.6458 9C21.6666 9.04167 21.6875 9.0625 21.6875 9.10416C21.6875 9.125 21.7083 9.14583 21.7083 9.16667C21.7291 9.22917 21.7291 9.27083 21.7291 9.375V26.0417L28.2708 22.3333V13.7708C28.2708 13.7083 28.2708 13.6458 28.2916 13.6042L28.3125 13.5417C28.3125 13.5417 28.3333 13.4792 28.3541 13.4375C28.3541 13.4167 28.375 13.3958 28.3958 13.375L28.4583 13.3125L28.5208 13.25C28.5416 13.2292 28.5625 13.2083 28.5833 13.2083L36.4583 8.6875C36.625 8.5625 36.875 8.5625 37.0833 8.6875L44.9166 13.2083C44.9375 13.2083 44.9583 13.2292 44.9791 13.25L45.0416 13.3125L45.1041 13.375C45.125 13.3958 45.125 13.4167 45.1458 13.4375C45.1666 13.4792 45.1666 13.5417 45.1875 13.5417C45.2083 13.5417 45.2083 13.5417 45.2083 13.6042ZM43.9375 22.3333V14.8958L37.3958 18.6458V26.0417L43.9375 22.3333ZM36.1041 35.7917V28.3333L21.7291 36.5417V44.0625L36.1041 35.7917ZM6.06246 10.4167V35.7917L20.4375 44.0625V36.5417L12.9375 32.2917H12.9166C12.8958 32.2917 12.875 32.2917 12.8541 32.2292C12.8333 32.2292 12.8125 32.2083 12.7916 32.1875L12.7291 32.125C12.7083 32.1042 12.7083 32.0833 12.6875 32.0625C12.6666 32.0208 12.6666 32 12.6458 31.9792C12.6458 31.9375 12.625 31.9167 12.625 31.8958C12.6041 31.875 12.6041 31.8333 12.6041 31.8125V14.2083L6.06246 10.4167ZM13.25 5.58333L6.72913 9.375L13.25 13.0833L19.7916 9.375L13.25 5.58333ZM20.4375 26.8333V10.4167L13.8958 14.2083V30.6042L20.4375 26.8333ZM36.75 10L30.2083 13.7708L36.75 17.5208L43.2708 13.7708L36.75 10ZM36.1041 18.6458L29.5625 14.8958V22.3333L36.1041 26.0417V18.6458ZM21.0833 35.4167L35.4166 27.2083L28.9166 23.4583L14.5833 31.7292L21.0833 35.4167Z" fill="#33CCCC"/>
</svg>
