<svg width="41" height="40" viewBox="0 0 41 40" fill="none" xmlns="http://www.w3.org/2000/svg">
<path d="M12.0667 8.33332C12.0663 9.21738 11.7146 10.065 11.0892 10.6899C10.4638 11.3147 9.61575 11.6654 8.73169 11.665C7.84764 11.6645 6.99997 11.3129 6.37516 10.6875C5.75035 10.0621 5.39958 9.21404 5.40002 8.32999C5.40047 7.44593 5.75208 6.59826 6.37751 5.97345C7.00295 5.34865 7.85097 4.99788 8.73502 4.99832C9.61908 4.99876 10.4668 5.35038 11.0916 5.97581C11.7164 6.60124 12.0671 7.44927 12.0667 8.33332ZM12.1667 14.1333H5.50002V35H12.1667V14.1333ZM22.7 14.1333H16.0667V35H22.6334V24.05C22.6334 17.95 30.5834 17.3833 30.5834 24.05V35H37.1667V21.7833C37.1667 11.5 25.4 11.8833 22.6334 16.9333L22.7 14.1333Z" fill="#ECF0F1"/>
</svg>
