<svg width="41" height="40" viewBox="0 0 41 40" fill="none" xmlns="http://www.w3.org/2000/svg">
<path d="M15.5 31.6667C8.33333 34 8.33333 27.5 5.5 26.6667M25.5 35V29.1667C25.5 27.5 25.6667 26.8333 24.6667 25.8333C29.3333 25.3333 33.8333 23.5 33.8333 15.8333C33.8313 13.8416 33.0542 11.9289 31.6667 10.5C32.3174 8.76995 32.2575 6.85272 31.5 5.16668C31.5 5.16668 29.6667 4.66668 25.6667 7.33334C22.2787 6.45099 18.7213 6.45099 15.3333 7.33334C11.3333 4.66668 9.5 5.16668 9.5 5.16668C8.74247 6.85272 8.68256 8.76995 9.33333 10.5C7.94576 11.9289 7.1687 13.8416 7.16667 15.8333C7.16667 23.5 11.6667 25.3333 16.3333 25.8333C15.3333 26.8333 15.3333 27.8333 15.5 29.1667V35" stroke="#ECF0F1" stroke-width="2" stroke-linecap="round" stroke-linejoin="round"/>
</svg>
