<svg width="60" height="61" viewBox="0 0 60 61" fill="none" xmlns="http://www.w3.org/2000/svg">
<g clip-path="url(#clip0_66_133)">
<mask id="mask0_66_133" style="mask-type:luminance" maskUnits="userSpaceOnUse" x="0" y="0" width="60" height="61">
<path d="M0 0.5H60V60.5H0V0.5Z" fill="white"/>
</mask>
<g mask="url(#mask0_66_133)">
<path d="M28.035 0.515312C27.905 0.527812 27.495 0.570312 27.125 0.597812C18.605 1.36781 10.625 5.96531 5.565 13.0328C2.77075 16.9121 0.9543 21.4087 0.27 26.1403C0.03 27.7903 0 28.2753 0 30.5103C0 32.7453 0.03 33.2328 0.27 34.8803C1.9 46.1478 9.92 55.6128 20.7925 59.1203C22.74 59.7478 24.7925 60.1753 27.125 60.4353C28.035 60.5353 31.965 60.5353 32.875 60.4353C36.9025 59.9878 40.3175 58.9903 43.6825 57.2728C44.2 57.0103 44.3 56.9378 44.23 56.8803C42.584 54.7096 40.9548 52.5262 39.3425 50.3303L34.545 43.8478L28.535 34.9503C26.5353 31.9743 24.5169 29.0109 22.48 26.0603C22.4575 26.0528 22.435 30.0053 22.4225 34.8353C22.405 43.2853 22.3975 43.6253 22.2925 43.8253C22.1901 44.0587 22.0074 44.2477 21.7775 44.3578C21.59 44.4528 21.4275 44.4703 20.54 44.4703H19.525L19.255 44.3003C19.0879 44.1948 18.9523 44.0463 18.8625 43.8703L18.7375 43.6078L18.75 31.8478L18.7675 20.0828L18.95 19.8528C19.0729 19.709 19.2201 19.588 19.385 19.4953C19.625 19.3778 19.7175 19.3678 20.735 19.3678C21.93 19.3678 22.13 19.4128 22.44 19.7528C22.5275 19.8478 25.7825 24.7528 29.6775 30.6578L41.5125 48.5878L46.2625 55.7828L46.505 55.6253C48.791 54.1055 50.8635 52.2869 52.6675 50.2178C56.4479 45.891 58.9001 40.5657 59.73 34.8803C59.97 33.2303 60 32.7453 60 30.5103C60 28.2753 59.97 27.7903 59.73 26.1403C58.1 14.8753 50.08 5.40781 39.2075 1.90031C37.1754 1.25424 35.0831 0.816156 32.9625 0.592812C32.3975 0.532812 28.5225 0.467813 28.0375 0.517812L28.035 0.515312ZM40.3175 18.6653C40.4569 18.7355 40.581 18.8326 40.6827 18.9511C40.7844 19.0695 40.8617 19.2069 40.91 19.3553C40.955 19.5053 40.9675 22.7678 40.955 30.1178L40.9375 40.6628L39.08 37.8128L37.215 34.9628V27.2978C37.215 22.3403 37.2375 19.5553 37.2725 19.4203C37.3141 19.2642 37.387 19.1181 37.4867 18.9909C37.5864 18.8637 37.7108 18.758 37.8525 18.6803C38.095 18.5553 38.1825 18.5453 39.1025 18.5453C39.97 18.5453 40.1225 18.5603 40.3175 18.6653Z" fill="#33CCCC"/>
</g>
</g>
<defs>
<clipPath id="clip0_66_133">
<rect width="60" height="60" fill="white" transform="translate(0 0.5)"/>
</clipPath>
</defs>
</svg>
