<svg width="41" height="40" viewBox="0 0 41 40" fill="none" xmlns="http://www.w3.org/2000/svg">
<path d="M7.16665 33.3333C6.24998 33.3333 5.46554 33.0072 4.81331 32.355C4.15998 31.7017 3.83331 30.9167 3.83331 30V9.99999C3.83331 9.08332 4.15998 8.29888 4.81331 7.64666C5.46554 6.99332 6.24998 6.66666 7.16665 6.66666H33.8333C34.75 6.66666 35.535 6.99332 36.1883 7.64666C36.8405 8.29888 37.1666 9.08332 37.1666 9.99999V30C37.1666 30.9167 36.8405 31.7017 36.1883 32.355C35.535 33.0072 34.75 33.3333 33.8333 33.3333H7.16665ZM20.5 21.6667L7.16665 13.3333V30H33.8333V13.3333L20.5 21.6667ZM20.5 18.3333L33.8333 9.99999H7.16665L20.5 18.3333ZM7.16665 13.3333V9.99999V30V13.3333Z" fill="#ECF0F1"/>
</svg>
