<svg width="60" height="61" viewBox="0 0 60 61" fill="none" xmlns="http://www.w3.org/2000/svg">
<g clip-path="url(#clip0_66_131)">
<path d="M19.21 0.5V20.5875H38.6475C39.3475 20.5875 39.9025 21.1775 39.9025 21.795V41.3H59.965V1.755C59.965 1.42215 59.8328 1.10294 59.5974 0.867581C59.3621 0.632223 59.0428 0.5 58.71 0.5L19.21 0.5ZM17.96 1.75L0.214994 19.5175C0.127574 19.6054 0.0681473 19.7172 0.0442145 19.8389C0.0202816 19.9605 0.0329145 20.0865 0.0805191 20.201C0.128124 20.3154 0.208567 20.4132 0.311697 20.482C0.414828 20.5508 0.536025 20.5875 0.659994 20.5875H17.96V1.75ZM19.21 21.8375V40.045C19.21 40.74 19.77 41.3 20.465 41.3H38.6525V23.045C38.6525 22.35 38.0925 21.84 37.3975 21.8375H19.21ZM39.9025 42.55V59.87C39.9025 60.43 40.58 60.71 40.9775 60.315L58.715 42.55H39.9025Z" fill="#33CCCC"/>
</g>
<defs>
<clipPath id="clip0_66_131">
<rect width="60" height="60" fill="white" transform="translate(0 0.5)"/>
</clipPath>
</defs>
</svg>
