<svg width="50" height="50" viewBox="0 0 50 50" fill="none" xmlns="http://www.w3.org/2000/svg">
<g clip-path="url(#clip0_35_36)">
<path d="M25.0021 0C12.8625 0 3.01666 10.3271 3.01666 23.0667C3.01666 27.4208 4.16666 31.4875 6.1625 34.9625C6.68333 35.5437 7.29583 35.9708 8.17291 35.9708C10.9625 35.9708 10.8146 31.6688 13.6042 31.6688C16.3958 31.6688 16.5437 35.9708 19.3333 35.9708C22.125 35.9708 21.9708 31.6688 24.7625 31.6688C25.9792 31.6688 26.6958 32.4958 27.3458 33.4188C26.8854 32.9917 26.3458 32.6938 25.6375 32.6938C23.1458 32.6938 22.9146 36.1896 21.0521 37.1542V46.55C21.0832 47.4442 21.4603 48.2915 22.1039 48.9131C22.7475 49.5347 23.6073 49.8822 24.5021 49.8822C25.3969 49.8822 26.2567 49.5347 26.9003 48.9131C27.5439 48.2915 27.921 47.4442 27.9521 46.55V34.2708C28.5937 35.1729 29.3 35.9687 30.4937 35.9687C33.2854 35.9687 33.1333 31.6667 35.9229 31.6667C36.8917 31.6667 37.5354 32.1979 38.0896 32.875C37.8062 32.7548 37.5016 32.6924 37.1938 32.6917C34.7792 32.6917 34.4917 35.9708 32.7813 37.0542V42.1292C32.7813 42.9524 33.1083 43.742 33.6904 44.3241C34.2726 44.9063 35.0621 45.2333 35.8854 45.2333C36.7087 45.2333 37.4983 44.9063 38.0804 44.3241C38.6625 43.742 38.9896 42.9524 38.9896 42.1292V34.1042C39.6646 35.075 40.3854 35.9667 41.6521 35.9667C43.3104 35.9667 43.9292 34.45 44.7458 33.2167C46.227 30.0376 46.9909 26.5717 46.9833 23.0646C46.9833 10.3271 37.1417 0 25 0L25.0021 0ZM23.8229 5.99375C29.8229 5.99375 34.6854 11.7938 34.6854 18.0917C34.6854 24.3896 31.4667 28.8208 23.8229 28.8208C16.1771 28.8208 12.9583 24.3896 12.9583 18.0917C12.9583 11.7938 17.8229 5.99375 23.8229 5.99375ZM20.9 9.45208C19.8198 9.45208 18.7838 9.92575 18.02 10.7689C17.2562 11.612 16.8271 12.7555 16.8271 13.9479C16.8271 15.1403 17.2562 16.2838 18.02 17.127C18.7838 17.9701 19.8198 18.4437 20.9 18.4437C21.9802 18.4437 23.0162 17.9701 23.78 17.127C24.5438 16.2838 24.9729 15.1403 24.9729 13.9479C24.9729 12.7555 24.5438 11.612 23.78 10.7689C23.0162 9.92575 21.9802 9.45208 20.9 9.45208ZM20.2208 10.8354C20.4886 10.8351 20.7537 10.8886 21.0012 10.9928C21.2486 11.0969 21.4735 11.2497 21.6629 11.4424C21.8523 11.6351 22.0026 11.864 22.1051 12.1159C22.2076 12.3677 22.2604 12.6377 22.2604 12.9104C22.2604 13.1831 22.2076 13.4531 22.1051 13.705C22.0026 13.9569 21.8523 14.1857 21.6629 14.3784C21.4735 14.5711 21.2486 14.7239 21.0012 14.8281C20.7537 14.9322 20.4886 14.9857 20.2208 14.9854C19.6808 14.9849 19.1631 14.766 18.7814 14.3769C18.3998 13.9878 18.1854 13.4604 18.1854 12.9104C18.1854 12.3605 18.3998 11.833 18.7814 11.4439C19.1631 11.0548 19.6808 10.836 20.2208 10.8354ZM14.075 32.6938C11.8375 32.6938 11.425 35.5167 10.0125 36.7875V40.5C10.0125 41.3233 10.3395 42.1128 10.9217 42.695C11.5038 43.2771 12.2934 43.6042 13.1167 43.6042C13.9399 43.6042 14.7295 43.2771 15.3116 42.695C15.8938 42.1128 16.2208 41.3233 16.2208 40.5V33.8708C15.6708 33.1958 15.0187 32.6958 14.075 32.6958V32.6938Z" fill="#33CCCC"/>
</g>
<defs>
<clipPath id="clip0_35_36">
<rect width="50" height="50" fill="white"/>
</clipPath>
</defs>
</svg>
